NotoSansPalmyrene-Regular.ufo
<glyph name="u10860" format="2">
  <advance width="696"/>
  <unicode hex="10860"/>
  <outline>
    <contour>
      <point x="634" y="-3" type="curve" smooth="yes"/>
      <point x="659" y="-3"/>
      <point x="676" y="20"/>
      <point x="676" y="45" type="curve" smooth="yes"/>
      <point x="676" y="52"/>
      <point x="672" y="60"/>
      <point x="664" y="66" type="curve" smooth="yes"/>
      <point x="571" y="136"/>
      <point x="490" y="207"/>
      <point x="419" y="283" type="curve"/>
      <point x="483" y="353"/>
      <point x="562" y="511"/>
      <point x="562" y="605" type="curve" smooth="yes"/>
      <point x="562" y="634"/>
      <point x="543" y="640"/>
      <point x="511" y="640" type="curve" smooth="yes"/>
      <point x="489" y="640"/>
      <point x="476" y="633"/>
      <point x="473" y="605" type="curve" smooth="yes"/>
      <point x="462" y="510"/>
      <point x="420" y="411"/>
      <point x="362" y="348" type="curve"/>
      <point x="295" y="429"/>
      <point x="234" y="515"/>
      <point x="175" y="607" type="curve" smooth="yes"/>
      <point x="161" y="629"/>
      <point x="151" y="640"/>
      <point x="127" y="640" type="curve" smooth="yes"/>
      <point x="103" y="640"/>
      <point x="78" y="631"/>
      <point x="78" y="605" type="curve" smooth="yes"/>
      <point x="78" y="592"/>
      <point x="89" y="570"/>
      <point x="105" y="547" type="curve" smooth="yes"/>
      <point x="128" y="513"/>
      <point x="147" y="486"/>
      <point x="166" y="459" type="curve"/>
      <point x="70" y="343"/>
      <point x="40" y="262"/>
      <point x="40" y="197" type="curve" smooth="yes"/>
      <point x="40" y="89"/>
      <point x="105" y="37"/>
      <point x="188" y="37" type="curve" smooth="yes"/>
      <point x="241" y="37"/>
      <point x="300" y="55"/>
      <point x="332" y="118" type="curve" smooth="yes"/>
      <point x="336" y="126"/>
      <point x="337" y="129"/>
      <point x="337" y="137" type="curve" smooth="yes"/>
      <point x="337" y="155"/>
      <point x="311" y="178"/>
      <point x="289" y="178" type="curve" smooth="yes"/>
      <point x="275" y="178"/>
      <point x="269" y="170"/>
      <point x="258" y="154" type="curve" smooth="yes"/>
      <point x="245" y="135"/>
      <point x="229" y="113"/>
      <point x="194" y="113" type="curve" smooth="yes"/>
      <point x="146" y="113"/>
      <point x="128" y="154"/>
      <point x="128" y="210" type="curve" smooth="yes"/>
      <point x="128" y="245"/>
      <point x="143" y="306"/>
      <point x="213" y="394" type="curve"/>
      <point x="249" y="346"/>
      <point x="286" y="300"/>
      <point x="336" y="246" type="curve" smooth="yes"/>
      <point x="424" y="151"/>
      <point x="482" y="96"/>
      <point x="582" y="21" type="curve" smooth="yes"/>
      <point x="598" y="9"/>
      <point x="615" y="-3"/>
    </contour>
  </outline>
</glyph>
<glyph name="u10861" format="2">
  <advance width="660"/>
  <unicode hex="10861"/>
  <outline>
    <contour>
      <point x="293" y="-8" type="curve" smooth="yes"/>
      <point x="406" y="-8"/>
      <point x="477" y="-3"/>
      <point x="521" y="3" type="curve" smooth="yes"/>
      <point x="570" y="10"/>
      <point x="600" y="45"/>
      <point x="600" y="93" type="curve" smooth="yes"/>
      <point x="600" y="159"/>
      <point x="576" y="291"/>
      <point x="542" y="456" type="curve" smooth="yes"/>
      <point x="515" y="588"/>
      <point x="498" y="635"/>
      <point x="446" y="635" type="curve" smooth="yes"/>
      <point x="423" y="635"/>
      <point x="403" y="627"/>
      <point x="383" y="614" type="curve" smooth="yes"/>
      <point x="359" y="598"/>
      <point x="330" y="582"/>
      <point x="275" y="582" type="curve" smooth="yes"/>
      <point x="212" y="582"/>
      <point x="197" y="605"/>
      <point x="187" y="622" type="curve" smooth="yes"/>
      <point x="175" y="643"/>
      <point x="164" y="647"/>
      <point x="141" y="647" type="curve" smooth="yes"/>
      <point x="118" y="647"/>
      <point x="101" y="637"/>
      <point x="101" y="620" type="curve" smooth="yes"/>
      <point x="101" y="588"/>
      <point x="149" y="508"/>
      <point x="262" y="508" type="curve" smooth="yes"/>
      <point x="332" y="508"/>
      <point x="362" y="521"/>
      <point x="383" y="531" type="curve" smooth="yes"/>
      <point x="398" y="538"/>
      <point x="406" y="540"/>
      <point x="414" y="540" type="curve" smooth="yes"/>
      <point x="440" y="540"/>
      <point x="450" y="487"/>
      <point x="459" y="440" type="curve" smooth="yes"/>
      <point x="484" y="311"/>
      <point x="512" y="150"/>
      <point x="512" y="118" type="curve" smooth="yes"/>
      <point x="512" y="76"/>
      <point x="464" y="70"/>
      <point x="284" y="70" type="curve" smooth="yes"/>
      <point x="159" y="70"/>
      <point x="103" y="84"/>
      <point x="70" y="93" type="curve" smooth="yes"/>
      <point x="58" y="96"/>
      <point x="45" y="99"/>
      <point x="35" y="99" type="curve" smooth="yes"/>
      <point x="17" y="99"/>
      <point x="10" y="85"/>
      <point x="10" y="68" type="curve" smooth="yes"/>
      <point x="10" y="46"/>
      <point x="18" y="21"/>
      <point x="42" y="13" type="curve" smooth="yes"/>
      <point x="80" y="1"/>
      <point x="196" y="-8"/>
    </contour>
  </outline>
</glyph>
<glyph name="u10862" format="2">
  <advance width="618"/>
  <unicode hex="10862"/>
  <outline>
    <contour>
      <point x="105" y="-17" type="curve" smooth="yes"/>
      <point x="155" y="-17"/>
      <point x="249" y="106"/>
      <point x="269" y="226" type="curve"/>
      <point x="320" y="136"/>
      <point x="388" y="67"/>
      <point x="487" y="14" type="curve" smooth="yes"/>
      <point x="513" y="0"/>
      <point x="543" y="-13"/>
      <point x="564" y="-13" type="curve" smooth="yes"/>
      <point x="588" y="-13"/>
      <point x="602" y="16"/>
      <point x="602" y="34" type="curve" smooth="yes"/>
      <point x="602" y="52"/>
      <point x="584" y="62"/>
      <point x="552" y="78" type="curve" smooth="yes"/>
      <point x="413" y="148"/>
      <point x="303" y="272"/>
      <point x="235" y="613" type="curve" smooth="yes"/>
      <point x="231" y="633"/>
      <point x="216" y="640"/>
      <point x="193" y="640" type="curve" smooth="yes"/>
      <point x="163" y="640"/>
      <point x="148" y="627"/>
      <point x="148" y="607" type="curve" smooth="yes"/>
      <point x="148" y="584"/>
      <point x="157" y="543"/>
      <point x="169" y="498" type="curve" smooth="yes"/>
      <point x="180" y="455"/>
      <point x="193" y="406"/>
      <point x="207" y="365" type="curve"/>
      <point x="202" y="258"/>
      <point x="163" y="113"/>
      <point x="74" y="51" type="curve" smooth="yes"/>
      <point x="64" y="44"/>
      <point x="60" y="35"/>
      <point x="60" y="23" type="curve" smooth="yes"/>
      <point x="60" y="1"/>
      <point x="80" y="-17"/>
    </contour>
  </outline>
</glyph>
<glyph name="u10863" format="2">
  <advance width="632"/>
  <unicode hex="10863"/>
  <outline>
    <contour>
      <point x="522" y="-13" type="curve" smooth="yes"/>
      <point x="563" y="-13"/>
      <point x="572" y="5"/>
      <point x="572" y="21" type="curve" smooth="yes"/>
      <point x="572" y="28"/>
      <point x="569" y="40"/>
      <point x="561" y="62" type="curve" smooth="yes"/>
      <point x="536" y="130"/>
      <point x="513" y="194"/>
      <point x="493" y="264" type="curve" smooth="yes"/>
      <point x="456" y="392"/>
      <point x="444" y="494"/>
      <point x="444" y="617" type="curve" smooth="yes"/>
      <point x="444" y="635"/>
      <point x="433" y="640"/>
      <point x="402" y="640" type="curve" smooth="yes"/>
      <point x="377" y="640"/>
      <point x="363" y="632"/>
      <point x="360" y="612" type="curve" smooth="yes"/>
      <point x="358" y="597"/>
      <point x="358" y="568"/>
      <point x="358" y="544" type="curve" smooth="yes"/>
      <point x="358" y="486"/>
      <point x="294" y="452"/>
      <point x="243" y="452" type="curve" smooth="yes"/>
      <point x="155" y="452"/>
      <point x="108" y="506"/>
      <point x="108" y="580" type="curve" smooth="yes"/>
      <point x="108" y="589"/>
      <point x="108" y="595"/>
      <point x="109" y="604" type="curve" smooth="yes"/>
      <point x="110" y="612"/>
      <point x="110" y="614"/>
      <point x="110" y="619" type="curve" smooth="yes"/>
      <point x="110" y="633"/>
      <point x="99" y="640"/>
      <point x="66" y="640" type="curve" smooth="yes"/>
      <point x="26" y="640"/>
      <point x="20" y="616"/>
      <point x="20" y="581" type="curve" smooth="yes"/>
      <point x="20" y="521"/>
      <point x="53" y="376"/>
      <point x="241" y="376" type="curve" smooth="yes"/>
      <point x="292" y="376"/>
      <point x="339" y="389"/>
      <point x="373" y="419" type="curve"/>
      <point x="402" y="239"/>
      <point x="471" y="52"/>
      <point x="485" y="15" type="curve" smooth="yes"/>
      <point x="492" y="-4"/>
      <point x="502" y="-13"/>
    </contour>
  </outline>
</glyph>
<glyph name="u10864" format="2">
  <advance width="696"/>
  <unicode hex="10864"/>
  <outline>
    <contour>
      <point x="585" y="-13" type="curve" smooth="yes"/>
      <point x="626" y="-13"/>
      <point x="635" y="5"/>
      <point x="635" y="21" type="curve" smooth="yes"/>
      <point x="635" y="28"/>
      <point x="632" y="41"/>
      <point x="621" y="68" type="curve" smooth="yes"/>
      <point x="574" y="184"/>
      <point x="542" y="273"/>
      <point x="518" y="375" type="curve" smooth="yes"/>
      <point x="500" y="451"/>
      <point x="497" y="520"/>
      <point x="497" y="601" type="curve" smooth="yes"/>
      <point x="497" y="630"/>
      <point x="493" y="640"/>
      <point x="456" y="640" type="curve" smooth="yes"/>
      <point x="412" y="640"/>
      <point x="410" y="626"/>
      <point x="410" y="558" type="curve" smooth="yes"/>
      <point x="410" y="502"/>
      <point x="417" y="443"/>
      <point x="429" y="385" type="curve"/>
      <point x="344" y="404"/>
      <point x="209" y="461"/>
      <point x="77" y="593" type="curve" smooth="yes"/>
      <point x="67" y="603"/>
      <point x="58" y="607"/>
      <point x="48" y="607" type="curve" smooth="yes"/>
      <point x="24" y="607"/>
      <point x="0" y="584"/>
      <point x="0" y="562" type="curve" smooth="yes"/>
      <point x="0" y="549"/>
      <point x="11" y="533"/>
      <point x="26" y="517" type="curve" smooth="yes"/>
      <point x="125" y="411"/>
      <point x="296" y="328"/>
      <point x="446" y="300" type="curve"/>
      <point x="287" y="247"/>
      <point x="177" y="57"/>
      <point x="177" y="25" type="curve" smooth="yes"/>
      <point x="177" y="2"/>
      <point x="202" y="-6"/>
      <point x="225" y="-6" type="curve" smooth="yes"/>
      <point x="242" y="-6"/>
      <point x="256" y="-1"/>
      <point x="262" y="12" type="curve" smooth="yes"/>
      <point x="291" y="74"/>
      <point x="377" y="192"/>
      <point x="472" y="224" type="curve"/>
      <point x="508" y="118"/>
      <point x="538" y="38"/>
      <point x="548" y="15" type="curve" smooth="yes"/>
      <point x="556" y="-3"/>
      <point x="564" y="-13"/>
    </contour>
  </outline>
</glyph>
<glyph name="u10866" format="2">
  <advance width="278"/>
  <unicode hex="10866"/>
  <outline>
    <contour>
      <point x="174" y="-13" type="curve" smooth="yes"/>
      <point x="215" y="-13"/>
      <point x="222" y="6"/>
      <point x="222" y="22" type="curve" smooth="yes"/>
      <point x="222" y="32"/>
      <point x="213" y="57"/>
      <point x="205" y="79" type="curve" smooth="yes"/>
      <point x="176" y="160"/>
      <point x="118" y="343"/>
      <point x="118" y="508" type="curve" smooth="yes"/>
      <point x="118" y="530"/>
      <point x="118" y="557"/>
      <point x="119" y="578" type="curve" smooth="yes"/>
      <point x="120" y="594"/>
      <point x="120" y="606"/>
      <point x="120" y="617" type="curve" smooth="yes"/>
      <point x="120" y="636"/>
      <point x="108" y="640"/>
      <point x="78" y="640" type="curve" smooth="yes"/>
      <point x="50" y="640"/>
      <point x="39" y="631"/>
      <point x="35" y="617" type="curve" smooth="yes"/>
      <point x="31" y="602"/>
      <point x="30" y="543"/>
      <point x="30" y="514" type="curve" smooth="yes"/>
      <point x="30" y="320"/>
      <point x="110" y="78"/>
      <point x="134" y="15" type="curve" smooth="yes"/>
      <point x="141" y="-3"/>
      <point x="153" y="-13"/>
    </contour>
  </outline>
</glyph>
<glyph name="u10867" format="2">
  <advance width="712"/>
  <unicode hex="10867"/>
  <outline>
    <contour>
      <point x="134" y="-13" type="curve" smooth="yes"/>
      <point x="232" y="-13"/>
      <point x="267" y="44"/>
      <point x="267" y="104" type="curve" smooth="yes"/>
      <point x="267" y="151"/>
      <point x="250" y="222"/>
      <point x="227" y="291" type="curve"/>
      <point x="257" y="314"/>
      <point x="291" y="336"/>
      <point x="322" y="336" type="curve" smooth="yes"/>
      <point x="357" y="336"/>
      <point x="424" y="291"/>
      <point x="480" y="250" type="curve"/>
      <point x="504" y="172"/>
      <point x="539" y="75"/>
      <point x="566" y="13" type="curve" smooth="yes"/>
      <point x="574" y="-5"/>
      <point x="585" y="-13"/>
      <point x="610" y="-13" type="curve" smooth="yes"/>
      <point x="641" y="-13"/>
      <point x="652" y="4"/>
      <point x="652" y="19" type="curve" smooth="yes"/>
      <point x="652" y="29"/>
      <point x="649" y="42"/>
      <point x="637" y="71" type="curve" smooth="yes"/>
      <point x="554" y="272"/>
      <point x="513" y="386"/>
      <point x="513" y="596" type="curve" smooth="yes"/>
      <point x="513" y="630"/>
      <point x="511" y="640"/>
      <point x="472" y="640" type="curve" smooth="yes"/>
      <point x="444" y="640"/>
      <point x="431" y="631"/>
      <point x="429" y="617" type="curve" smooth="yes"/>
      <point x="426" y="594"/>
      <point x="426" y="576"/>
      <point x="426" y="558" type="curve" smooth="yes"/>
      <point x="426" y="491"/>
      <point x="437" y="420"/>
      <point x="453" y="352" type="curve"/>
      <point x="401" y="385"/>
      <point x="363" y="408"/>
      <point x="326" y="408" type="curve" smooth="yes"/>
      <point x="282" y="408"/>
      <point x="241" y="383"/>
      <point x="206" y="358" type="curve"/>
      <point x="184" y="442"/>
      <point x="173" y="545"/>
      <point x="173" y="607" type="curve" smooth="yes"/>
      <point x="173" y="631"/>
      <point x="167" y="640"/>
      <point x="132" y="640" type="curve" smooth="yes"/>
      <point x="95" y="640"/>
      <point x="87" y="627"/>
      <point x="87" y="602" type="curve" smooth="yes"/>
      <point x="87" y="530"/>
      <point x="98" y="417"/>
      <point x="130" y="315" type="curve" smooth="yes"/>
      <point x="158" y="225"/>
      <point x="179" y="146"/>
      <point x="179" y="114" type="curve" smooth="yes"/>
      <point x="179" y="77"/>
      <point x="165" y="63"/>
      <point x="132" y="63" type="curve" smooth="yes"/>
      <point x="113" y="63"/>
      <point x="99" y="67"/>
      <point x="86" y="72" type="curve" smooth="yes"/>
      <point x="75" y="76"/>
      <point x="66" y="79"/>
      <point x="56" y="79" type="curve" smooth="yes"/>
      <point x="36" y="79"/>
      <point x="20" y="60"/>
      <point x="20" y="39" type="curve" smooth="yes"/>
      <point x="20" y="27"/>
      <point x="27" y="17"/>
      <point x="43" y="7" type="curve" smooth="yes"/>
      <point x="63" y="-5"/>
      <point x="96" y="-13"/>
    </contour>
  </outline>
</glyph>
<glyph name="u1086B" format="2">
  <advance width="530"/>
  <unicode hex="1086B"/>
  <outline>
    <contour>
      <point x="289" y="-10" type="curve" smooth="yes"/>
      <point x="387" y="-10"/>
      <point x="470" y="48"/>
      <point x="470" y="158" type="curve" smooth="yes"/>
      <point x="470" y="225"/>
      <point x="420" y="406"/>
      <point x="332" y="406" type="curve" smooth="yes"/>
      <point x="305" y="406"/>
      <point x="289" y="395"/>
      <point x="258" y="373" type="curve" smooth="yes"/>
      <point x="233" y="355"/>
      <point x="206" y="338"/>
      <point x="178" y="338" type="curve" smooth="yes"/>
      <point x="147" y="338"/>
      <point x="134" y="371"/>
      <point x="124" y="468" type="curve" smooth="yes"/>
      <point x="115" y="558"/>
      <point x="109" y="681"/>
      <point x="109" y="746" type="curve" smooth="yes"/>
      <point x="109" y="769"/>
      <point x="97" y="778"/>
      <point x="64" y="778" type="curve" smooth="yes"/>
      <point x="37" y="778"/>
      <point x="20" y="771"/>
      <point x="20" y="746" type="curve" smooth="yes"/>
      <point x="20" y="705"/>
      <point x="30" y="557"/>
      <point x="39" y="464" type="curve" smooth="yes"/>
      <point x="52" y="328"/>
      <point x="78" y="262"/>
      <point x="169" y="262" type="curve" smooth="yes"/>
      <point x="213" y="262"/>
      <point x="254" y="281"/>
      <point x="278" y="299" type="curve" smooth="yes"/>
      <point x="294" y="311"/>
      <point x="305" y="318"/>
      <point x="314" y="318" type="curve" smooth="yes"/>
      <point x="345" y="318"/>
      <point x="382" y="219"/>
      <point x="382" y="165" type="curve" smooth="yes"/>
      <point x="382" y="109"/>
      <point x="358" y="66"/>
      <point x="270" y="66" type="curve" smooth="yes"/>
      <point x="256" y="66"/>
      <point x="248" y="67"/>
      <point x="241" y="68" type="curve" smooth="yes"/>
      <point x="235" y="69"/>
      <point x="229" y="70"/>
      <point x="223" y="70" type="curve" smooth="yes"/>
      <point x="203" y="70"/>
      <point x="195" y="58"/>
      <point x="195" y="37" type="curve" smooth="yes"/>
      <point x="195" y="0"/>
      <point x="219" y="-10"/>
    </contour>
  </outline>
</glyph>
<glyph name="u1086C" format="2">
  <advance width="748"/>
  <unicode hex="1086C"/>
  <outline>
    <contour>
      <point x="61" y="-11" type="curve" smooth="yes"/>
      <point x="83" y="-11"/>
      <point x="110" y="-1"/>
      <point x="135" y="12" type="curve" smooth="yes"/>
      <point x="268" y="83"/>
      <point x="324" y="240"/>
      <point x="324" y="387" type="curve" smooth="yes"/>
      <point x="324" y="425"/>
      <point x="322" y="451"/>
      <point x="317" y="476" type="curve"/>
      <point x="388" y="448"/>
      <point x="472" y="436"/>
      <point x="524" y="436" type="curve"/>
      <point x="524" y="429" type="line" smooth="yes"/>
      <point x="524" y="373"/>
      <point x="551" y="318"/>
      <point x="578" y="267" type="curve" smooth="yes"/>
      <point x="600" y="225"/>
      <point x="620" y="186"/>
      <point x="620" y="143" type="curve" smooth="yes"/>
      <point x="620" y="87"/>
      <point x="582" y="66"/>
      <point x="539" y="66" type="curve" smooth="yes"/>
      <point x="502" y="66"/>
      <point x="468" y="82"/>
      <point x="444" y="120" type="curve" smooth="yes"/>
      <point x="437" y="131"/>
      <point x="432" y="136"/>
      <point x="418" y="136" type="curve" smooth="yes"/>
      <point x="401" y="136"/>
      <point x="366" y="121"/>
      <point x="366" y="96" type="curve" smooth="yes"/>
      <point x="366" y="54"/>
      <point x="424" y="-10"/>
      <point x="536" y="-10" type="curve" smooth="yes"/>
      <point x="606" y="-10"/>
      <point x="708" y="14"/>
      <point x="708" y="150" type="curve" smooth="yes"/>
      <point x="708" y="214"/>
      <point x="683" y="265"/>
      <point x="650" y="326" type="curve" smooth="yes"/>
      <point x="628" y="367"/>
      <point x="608" y="405"/>
      <point x="608" y="446" type="curve" smooth="yes"/>
      <point x="608" y="451"/>
      <point x="608" y="459"/>
      <point x="609" y="468" type="curve" smooth="yes"/>
      <point x="610" y="479"/>
      <point x="610" y="483"/>
      <point x="610" y="489" type="curve" smooth="yes"/>
      <point x="610" y="509"/>
      <point x="590" y="520"/>
      <point x="571" y="520" type="curve" smooth="yes"/>
      <point x="563" y="520"/>
      <point x="554" y="519"/>
      <point x="541" y="516" type="curve" smooth="yes"/>
      <point x="533" y="514"/>
      <point x="525" y="513"/>
      <point x="517" y="513" type="curve" smooth="yes"/>
      <point x="489" y="513"/>
      <point x="328" y="532"/>
      <point x="287" y="579" type="curve"/>
      <point x="266" y="613"/>
      <point x="244" y="642"/>
      <point x="223" y="642" type="curve" smooth="yes"/>
      <point x="202" y="642"/>
      <point x="181" y="623"/>
      <point x="181" y="604" type="curve" smooth="yes"/>
      <point x="181" y="593"/>
      <point x="185" y="586"/>
      <point x="192" y="578" type="curve" smooth="yes"/>
      <point x="229" y="532"/>
      <point x="243" y="469"/>
      <point x="243" y="403" type="curve" smooth="yes"/>
      <point x="243" y="284"/>
      <point x="214" y="146"/>
      <point x="57" y="71" type="curve" smooth="yes"/>
      <point x="28" y="57"/>
      <point x="20" y="49"/>
      <point x="20" y="33" type="curve" smooth="yes"/>
      <point x="20" y="9"/>
      <point x="34" y="-11"/>
    </contour>
  </outline>
</glyph>
<glyph name="u1086D" format="2">
  <advance width="401"/>
  <unicode hex="1086D"/>
  <outline>
    <contour>
      <point x="274" y="-180" type="curve" smooth="yes"/>
      <point x="295" y="-180"/>
      <point x="316" y="-171"/>
      <point x="316" y="-149" type="curve" smooth="yes"/>
      <point x="316" y="-139"/>
      <point x="315" y="-128"/>
      <point x="314" y="-118" type="curve" smooth="yes"/>
      <point x="313" y="-105"/>
      <point x="312" y="-89"/>
      <point x="312" y="-54" type="curve" smooth="yes"/>
      <point x="312" y="-29"/>
      <point x="313" y="27"/>
      <point x="316" y="88" type="curve" smooth="yes"/>
      <point x="320" y="158"/>
      <point x="321" y="204"/>
      <point x="321" y="249" type="curve" smooth="yes"/>
      <point x="321" y="306"/>
      <point x="305" y="339"/>
      <point x="222" y="352" type="curve" smooth="yes"/>
      <point x="124" y="367"/>
      <point x="88" y="402"/>
      <point x="88" y="466" type="curve" smooth="yes"/>
      <point x="88" y="517"/>
      <point x="124" y="565"/>
      <point x="217" y="565" type="curve" smooth="yes"/>
      <point x="233" y="565"/>
      <point x="248" y="565"/>
      <point x="272" y="562" type="curve" smooth="yes"/>
      <point x="279" y="561"/>
      <point x="290" y="560"/>
      <point x="307" y="560" type="curve" smooth="yes"/>
      <point x="336" y="560"/>
      <point x="341" y="584"/>
      <point x="341" y="605" type="curve" smooth="yes"/>
      <point x="341" y="620"/>
      <point x="333" y="629"/>
      <point x="313" y="633" type="curve" smooth="yes"/>
      <point x="292" y="637"/>
      <point x="263" y="640"/>
      <point x="231" y="640" type="curve" smooth="yes"/>
      <point x="75" y="640"/>
      <point x="0" y="570"/>
      <point x="0" y="457" type="curve" smooth="yes"/>
      <point x="0" y="345"/>
      <point x="72" y="297"/>
      <point x="204" y="272" type="curve" smooth="yes"/>
      <point x="226" y="268"/>
      <point x="237" y="256"/>
      <point x="237" y="222" type="curve" smooth="yes"/>
      <point x="237" y="204"/>
      <point x="235" y="164"/>
      <point x="232" y="117" type="curve" smooth="yes"/>
      <point x="228" y="47"/>
      <point x="224" y="-38"/>
      <point x="224" y="-94" type="curve" smooth="yes"/>
      <point x="224" y="-113"/>
      <point x="224" y="-132"/>
      <point x="228" y="-152" type="curve" smooth="yes"/>
      <point x="232" y="-170"/>
      <point x="250" y="-180"/>
    </contour>
  </outline>
</glyph>
<glyph name="u10870" format="2">
  <advance width="534"/>
  <unicode hex="10870"/>
  <outline>
    <contour>
      <point x="79" y="-10" type="curve" smooth="yes"/>
      <point x="101" y="-10"/>
      <point x="114" y="5"/>
      <point x="134" y="28" type="curve" smooth="yes"/>
      <point x="234" y="143"/>
      <point x="389" y="383"/>
      <point x="459" y="561" type="curve" smooth="yes"/>
      <point x="472" y="594"/>
      <point x="474" y="604"/>
      <point x="474" y="609" type="curve" smooth="yes"/>
      <point x="474" y="634"/>
      <point x="449" y="640"/>
      <point x="432" y="640" type="curve" smooth="yes"/>
      <point x="410" y="640"/>
      <point x="398" y="633"/>
      <point x="390" y="611" type="curve" smooth="yes"/>
      <point x="372" y="563"/>
      <point x="346" y="503"/>
      <point x="310" y="437" type="curve"/>
      <point x="221" y="440"/>
      <point x="174" y="509"/>
      <point x="153" y="606" type="curve" smooth="yes"/>
      <point x="147" y="634"/>
      <point x="131" y="640"/>
      <point x="105" y="640" type="curve" smooth="yes"/>
      <point x="82" y="640"/>
      <point x="65" y="631"/>
      <point x="65" y="605" type="curve" smooth="yes"/>
      <point x="65" y="545"/>
      <point x="130" y="385"/>
      <point x="270" y="365" type="curve"/>
      <point x="216" y="276"/>
      <point x="148" y="172"/>
      <point x="52" y="61" type="curve" smooth="yes"/>
      <point x="39" y="46"/>
      <point x="29" y="33"/>
      <point x="29" y="19" type="curve" smooth="yes"/>
      <point x="29" y="3"/>
      <point x="54" y="-10"/>
    </contour>
  </outline>
</glyph>
<glyph name="u10872" format="2">
  <advance width="595"/>
  <unicode hex="10872"/>
  <outline>
    <contour>
      <point x="90" y="-126" type="curve" smooth="yes"/>
      <point x="192" y="-126"/>
      <point x="230" y="-59"/>
      <point x="230" y="49" type="curve" smooth="yes"/>
      <point x="230" y="127"/>
      <point x="219" y="215"/>
      <point x="206" y="306" type="curve"/>
      <point x="261" y="306" type="line" smooth="yes"/>
      <point x="296" y="306"/>
      <point x="348" y="306"/>
      <point x="393" y="303" type="curve"/>
      <point x="399" y="164"/>
      <point x="432" y="77"/>
      <point x="535" y="77" type="curve" smooth="yes"/>
      <point x="567" y="77"/>
      <point x="575" y="94"/>
      <point x="575" y="126" type="curve" smooth="yes"/>
      <point x="575" y="140"/>
      <point x="570" y="151"/>
      <point x="555" y="151" type="curve" smooth="yes"/>
      <point x="550" y="151"/>
      <point x="545" y="151"/>
      <point x="535" y="153" type="curve" smooth="yes"/>
      <point x="484" y="163"/>
      <point x="476" y="256"/>
      <point x="476" y="383" type="curve" smooth="yes"/>
      <point x="476" y="432"/>
      <point x="477" y="472"/>
      <point x="480" y="511" type="curve" smooth="yes"/>
      <point x="484" y="567"/>
      <point x="486" y="598"/>
      <point x="486" y="615" type="curve" smooth="yes"/>
      <point x="486" y="638"/>
      <point x="475" y="640"/>
      <point x="445" y="640" type="curve" smooth="yes"/>
      <point x="419" y="640"/>
      <point x="411" y="635"/>
      <point x="406" y="620" type="curve" smooth="yes"/>
      <point x="400" y="603"/>
      <point x="392" y="487"/>
      <point x="392" y="399" type="curve" smooth="yes"/>
      <point x="392" y="375" type="line"/>
      <point x="350" y="377"/>
      <point x="303" y="378"/>
      <point x="270" y="378" type="curve" smooth="yes"/>
      <point x="247" y="378"/>
      <point x="222" y="378"/>
      <point x="197" y="377" type="curve"/>
      <point x="187" y="453"/>
      <point x="180" y="530"/>
      <point x="180" y="607" type="curve" smooth="yes"/>
      <point x="180" y="635"/>
      <point x="166" y="640"/>
      <point x="139" y="640" type="curve" smooth="yes"/>
      <point x="105" y="640"/>
      <point x="92" y="630"/>
      <point x="92" y="607" type="curve" smooth="yes"/>
      <point x="92" y="518"/>
      <point x="105" y="421"/>
      <point x="118" y="324" type="curve" smooth="yes"/>
      <point x="131" y="230"/>
      <point x="142" y="135"/>
      <point x="142" y="49" type="curve" smooth="yes"/>
      <point x="142" y="-13"/>
      <point x="137" y="-50"/>
      <point x="91" y="-50" type="curve" smooth="yes"/>
      <point x="73" y="-50"/>
      <point x="57" y="-43"/>
      <point x="42" y="-36" type="curve" smooth="yes"/>
      <point x="29" y="-30"/>
      <point x="16" y="-25"/>
      <point x="6" y="-25" type="curve" smooth="yes"/>
      <point x="-15" y="-25"/>
      <point x="-30" y="-46"/>
      <point x="-30" y="-65" type="curve" smooth="yes"/>
      <point x="-30" y="-102"/>
      <point x="37" y="-126"/>
    </contour>
  </outline>
</glyph>
<glyph name="u10877" format="2">
  <advance width="852"/>
  <unicode hex="10877"/>
  <outline>
    <contour>
      <point x="437" y="100" type="curve" smooth="yes"/>
      <point x="508" y="100"/>
      <point x="581" y="136"/>
      <point x="581" y="225" type="curve" smooth="yes"/>
      <point x="581" y="232"/>
      <point x="580" y="240"/>
      <point x="578" y="247" type="curve"/>
      <point x="606" y="227"/>
      <point x="640" y="213"/>
      <point x="686" y="213" type="curve" smooth="yes"/>
      <point x="768" y="213"/>
      <point x="822" y="275"/>
      <point x="822" y="354" type="curve" smooth="yes"/>
      <point x="822" y="394"/>
      <point x="807" y="411"/>
      <point x="757" y="411" type="curve" smooth="yes"/>
      <point x="740" y="411"/>
      <point x="732" y="404"/>
      <point x="732" y="391" type="curve" smooth="yes"/>
      <point x="732" y="386"/>
      <point x="733" y="379"/>
      <point x="734" y="372" type="curve" smooth="yes"/>
      <point x="735" y="366"/>
      <point x="736" y="359"/>
      <point x="736" y="352" type="curve" smooth="yes"/>
      <point x="736" y="309"/>
      <point x="710" y="279"/>
      <point x="669" y="279" type="curve" smooth="yes"/>
      <point x="625" y="279"/>
      <point x="576" y="308"/>
      <point x="560" y="344" type="curve"/>
      <point x="572" y="363"/>
      <point x="581" y="386"/>
      <point x="581" y="410" type="curve" smooth="yes"/>
      <point x="581" y="488"/>
      <point x="509" y="535"/>
      <point x="442" y="535" type="curve" smooth="yes"/>
      <point x="376" y="535"/>
      <point x="329" y="503"/>
      <point x="312" y="450" type="curve"/>
      <point x="299" y="455"/>
      <point x="284" y="458"/>
      <point x="266" y="458" type="curve" smooth="yes"/>
      <point x="196" y="458"/>
      <point x="135" y="396"/>
      <point x="41" y="291" type="curve" smooth="yes"/>
      <point x="26" y="274"/>
      <point x="17" y="263"/>
      <point x="17" y="253" type="curve" smooth="yes"/>
      <point x="17" y="243"/>
      <point x="27" y="238"/>
      <point x="43" y="231" type="curve" smooth="yes"/>
      <point x="89" y="211"/>
      <point x="171" y="188"/>
      <point x="253" y="188" type="curve" smooth="yes"/>
      <point x="270" y="188"/>
      <point x="291" y="190"/>
      <point x="309" y="194" type="curve"/>
      <point x="323" y="136"/>
      <point x="371" y="100"/>
    </contour>
    <contour>
      <point x="438" y="166" type="curve" smooth="yes"/>
      <point x="400" y="166"/>
      <point x="369" y="191"/>
      <point x="369" y="235" type="curve" smooth="yes"/>
      <point x="369" y="257"/>
      <point x="362" y="274"/>
      <point x="342" y="274" type="curve" smooth="yes"/>
      <point x="334" y="274"/>
      <point x="326" y="271"/>
      <point x="319" y="267" type="curve" smooth="yes"/>
      <point x="307" y="260"/>
      <point x="287" y="254"/>
      <point x="259" y="254" type="curve" smooth="yes"/>
      <point x="219" y="254"/>
      <point x="159" y="262"/>
      <point x="118" y="279" type="curve"/>
      <point x="140" y="295"/>
      <point x="160" y="314"/>
      <point x="184" y="341" type="curve" smooth="yes"/>
      <point x="211" y="371"/>
      <point x="238" y="392"/>
      <point x="265" y="392" type="curve" smooth="yes"/>
      <point x="289" y="392"/>
      <point x="304" y="384"/>
      <point x="317" y="373" type="curve" smooth="yes"/>
      <point x="326" y="366"/>
      <point x="334" y="361"/>
      <point x="345" y="361" type="curve" smooth="yes"/>
      <point x="363" y="361"/>
      <point x="369" y="381"/>
      <point x="369" y="402" type="curve" smooth="yes"/>
      <point x="369" y="440"/>
      <point x="395" y="469"/>
      <point x="438" y="469" type="curve" smooth="yes"/>
      <point x="475" y="469"/>
      <point x="508" y="445"/>
      <point x="508" y="401" type="curve" smooth="yes"/>
      <point x="508" y="357"/>
      <point x="476" y="340"/>
      <point x="450" y="330" type="curve" smooth="yes"/>
      <point x="440" y="326"/>
      <point x="432" y="322"/>
      <point x="432" y="317" type="curve" smooth="yes"/>
      <point x="432" y="312"/>
      <point x="439" y="310"/>
      <point x="450" y="307" type="curve" smooth="yes"/>
      <point x="472" y="300"/>
      <point x="508" y="287"/>
      <point x="508" y="235" type="curve" smooth="yes"/>
      <point x="508" y="188"/>
      <point x="473" y="166"/>
    </contour>
  </outline>
</glyph>
<glyph name="u10879" format="2">
  <advance width="325"/>
  <unicode hex="10879"/>
  <outline>
    <contour>
      <point x="95" y="-53" type="curve" smooth="yes"/>
      <point x="113" y="-53"/>
      <point x="132" y="-41"/>
      <point x="150" y="-9" type="curve" smooth="yes"/>
      <point x="202" y="83"/>
      <point x="213" y="177"/>
      <point x="220" y="404" type="curve" smooth="yes"/>
      <point x="222" y="470"/>
      <point x="222" y="538"/>
      <point x="222" y="610" type="curve" smooth="yes"/>
      <point x="222" y="638"/>
      <point x="202" y="640"/>
      <point x="174" y="640" type="curve" smooth="yes"/>
      <point x="149" y="640"/>
      <point x="130" y="632"/>
      <point x="130" y="609" type="curve" smooth="yes"/>
      <point x="130" y="588"/>
      <point x="131" y="563"/>
      <point x="133" y="519" type="curve" smooth="yes"/>
      <point x="135" y="481"/>
      <point x="137" y="441"/>
      <point x="137" y="415" type="curve" smooth="yes"/>
      <point x="137" y="223"/>
      <point x="126" y="81"/>
      <point x="66" y="11" type="curve" smooth="yes"/>
      <point x="54" y="-3"/>
      <point x="50" y="-12"/>
      <point x="50" y="-22" type="curve" smooth="yes"/>
      <point x="50" y="-37"/>
      <point x="65" y="-53"/>
    </contour>
  </outline>
</glyph>
<glyph name="u1087D" format="2">
  <advance width="560"/>
  <unicode hex="1087D"/>
  <outline>
    <contour>
      <point x="100" y="-10" type="curve" smooth="yes"/>
      <point x="117" y="-10"/>
      <point x="134" y="-2"/>
      <point x="151" y="22" type="curve" smooth="yes"/>
      <point x="222" y="123"/>
      <point x="506" y="536"/>
      <point x="506" y="611" type="curve" smooth="yes"/>
      <point x="506" y="634"/>
      <point x="484" y="640"/>
      <point x="465" y="640" type="curve" smooth="yes"/>
      <point x="443" y="640"/>
      <point x="432" y="631"/>
      <point x="424" y="615" type="curve" smooth="yes"/>
      <point x="387" y="542" type="line" smooth="yes"/>
      <point x="362" y="492"/>
      <point x="337" y="472"/>
      <point x="292" y="472" type="curve" smooth="yes"/>
      <point x="205" y="472"/>
      <point x="177" y="533"/>
      <point x="153" y="612" type="curve" smooth="yes"/>
      <point x="146" y="635"/>
      <point x="133" y="640"/>
      <point x="108" y="640" type="curve" smooth="yes"/>
      <point x="85" y="640"/>
      <point x="66" y="631"/>
      <point x="66" y="605" type="curve" smooth="yes"/>
      <point x="66" y="577"/>
      <point x="107" y="398"/>
      <point x="279" y="398" type="curve" smooth="yes"/>
      <point x="287" y="398"/>
      <point x="296" y="398"/>
      <point x="304" y="399" type="curve"/>
      <point x="246" y="307"/>
      <point x="162" y="177"/>
      <point x="72" y="60" type="curve" smooth="yes"/>
      <point x="59" y="43"/>
      <point x="50" y="31"/>
      <point x="50" y="19" type="curve" smooth="yes"/>
      <point x="50" y="-2"/>
      <point x="74" y="-10"/>
    </contour>
  </outline>
</glyph>
<glyph name="u1086110860" format="2">
  <advance width="1180"/>
  <outline>
    <contour>
      <point x="856" y="-8" type="curve" smooth="yes"/>
      <point x="926" y="-8"/>
      <point x="997" y="-3"/>
      <point x="1041" y="3" type="curve" smooth="yes"/>
      <point x="1090" y="10"/>
      <point x="1120" y="45"/>
      <point x="1120" y="93" type="curve" smooth="yes"/>
      <point x="1120" y="159"/>
      <point x="1096" y="291"/>
      <point x="1062" y="456" type="curve" smooth="yes"/>
      <point x="1035" y="588"/>
      <point x="1018" y="635"/>
      <point x="966" y="635" type="curve" smooth="yes"/>
      <point x="943" y="635"/>
      <point x="923" y="627"/>
      <point x="903" y="614" type="curve" smooth="yes"/>
      <point x="879" y="598"/>
      <point x="850" y="582"/>
      <point x="795" y="582" type="curve" smooth="yes"/>
      <point x="732" y="582"/>
      <point x="717" y="605"/>
      <point x="707" y="622" type="curve" smooth="yes"/>
      <point x="695" y="643"/>
      <point x="684" y="647"/>
      <point x="661" y="647" type="curve" smooth="yes"/>
      <point x="638" y="647"/>
      <point x="621" y="637"/>
      <point x="621" y="620" type="curve" smooth="yes"/>
      <point x="621" y="588"/>
      <point x="669" y="508"/>
      <point x="782" y="508" type="curve" smooth="yes"/>
      <point x="852" y="508"/>
      <point x="882" y="521"/>
      <point x="903" y="531" type="curve" smooth="yes"/>
      <point x="918" y="538"/>
      <point x="926" y="540"/>
      <point x="934" y="540" type="curve" smooth="yes"/>
      <point x="960" y="540"/>
      <point x="970" y="487"/>
      <point x="979" y="440" type="curve" smooth="yes"/>
      <point x="1004" y="311"/>
      <point x="1032" y="150"/>
      <point x="1032" y="118" type="curve" smooth="yes"/>
      <point x="1032" y="76"/>
      <point x="975" y="70"/>
      <point x="847" y="70" type="curve" smooth="yes"/>
      <point x="737" y="70"/>
      <point x="685" y="73"/>
      <point x="625" y="101" type="curve" smooth="yes"/>
      <point x="565" y="129"/>
      <point x="490" y="207"/>
      <point x="419" y="283" type="curve"/>
      <point x="483" y="353"/>
      <point x="562" y="511"/>
      <point x="562" y="605" type="curve" smooth="yes"/>
      <point x="562" y="634"/>
      <point x="543" y="640"/>
      <point x="511" y="640" type="curve" smooth="yes"/>
      <point x="489" y="640"/>
      <point x="476" y="633"/>
      <point x="473" y="605" type="curve" smooth="yes"/>
      <point x="463" y="510"/>
      <point x="420" y="411"/>
      <point x="362" y="348" type="curve"/>
      <point x="295" y="429"/>
      <point x="234" y="515"/>
      <point x="175" y="607" type="curve" smooth="yes"/>
      <point x="161" y="629"/>
      <point x="151" y="640"/>
      <point x="127" y="640" type="curve" smooth="yes"/>
      <point x="103" y="640"/>
      <point x="78" y="631"/>
      <point x="78" y="605" type="curve" smooth="yes"/>
      <point x="78" y="592"/>
      <point x="89" y="570"/>
      <point x="105" y="547" type="curve" smooth="yes"/>
      <point x="128" y="513"/>
      <point x="147" y="486"/>
      <point x="166" y="459" type="curve"/>
      <point x="70" y="343"/>
      <point x="40" y="262"/>
      <point x="40" y="197" type="curve" smooth="yes"/>
      <point x="40" y="89"/>
      <point x="105" y="37"/>
      <point x="188" y="37" type="curve" smooth="yes"/>
      <point x="241" y="37"/>
      <point x="300" y="55"/>
      <point x="332" y="118" type="curve" smooth="yes"/>
      <point x="336" y="126"/>
      <point x="337" y="129"/>
      <point x="337" y="137" type="curve" smooth="yes"/>
      <point x="337" y="155"/>
      <point x="311" y="178"/>
      <point x="289" y="178" type="curve" smooth="yes"/>
      <point x="275" y="178"/>
      <point x="269" y="170"/>
      <point x="258" y="154" type="curve" smooth="yes"/>
      <point x="245" y="135"/>
      <point x="229" y="113"/>
      <point x="194" y="113" type="curve" smooth="yes"/>
      <point x="146" y="113"/>
      <point x="128" y="154"/>
      <point x="128" y="210" type="curve" smooth="yes"/>
      <point x="128" y="245"/>
      <point x="143" y="306"/>
      <point x="213" y="394" type="curve"/>
      <point x="249" y="346"/>
      <point x="286" y="300"/>
      <point x="336" y="246" type="curve" smooth="yes"/>
      <point x="427" y="148"/>
      <point x="503" y="69"/>
      <point x="575" y="32" type="curve" smooth="yes"/>
      <point x="636" y="1"/>
      <point x="703" y="-8"/>
    </contour>
  </outline>
</glyph>
<glyph name="u1086110876" format="2">
  <advance width="1110"/>
  <outline>
    <contour>
      <point x="153" y="-12" type="curve" smooth="yes"/>
      <point x="269" y="-12"/>
      <point x="304" y="53"/>
      <point x="304" y="119" type="curve" smooth="yes"/>
      <point x="304" y="166"/>
      <point x="290" y="226"/>
      <point x="275" y="288" type="curve"/>
      <point x="310" y="339"/>
      <point x="379" y="409"/>
      <point x="433" y="409" type="curve" smooth="yes"/>
      <point x="500" y="409"/>
      <point x="515" y="319"/>
      <point x="543" y="157" type="curve" smooth="yes"/>
      <point x="558" y="69"/>
      <point x="572" y="12"/>
      <point x="614" y="0" type="curve" smooth="yes"/>
      <point x="638" y="-7"/>
      <point x="688" y="-8"/>
      <point x="786" y="-8" type="curve" smooth="yes"/>
      <point x="856" y="-8"/>
      <point x="927" y="-3"/>
      <point x="971" y="3" type="curve" smooth="yes"/>
      <point x="1020" y="10"/>
      <point x="1050" y="45"/>
      <point x="1050" y="93" type="curve" smooth="yes"/>
      <point x="1050" y="159"/>
      <point x="1026" y="291"/>
      <point x="992" y="456" type="curve" smooth="yes"/>
      <point x="965" y="588"/>
      <point x="948" y="635"/>
      <point x="896" y="635" type="curve" smooth="yes"/>
      <point x="873" y="635"/>
      <point x="853" y="627"/>
      <point x="833" y="614" type="curve" smooth="yes"/>
      <point x="809" y="598"/>
      <point x="780" y="582"/>
      <point x="725" y="582" type="curve" smooth="yes"/>
      <point x="662" y="582"/>
      <point x="647" y="605"/>
      <point x="637" y="622" type="curve" smooth="yes"/>
      <point x="625" y="643"/>
      <point x="614" y="647"/>
      <point x="591" y="647" type="curve" smooth="yes"/>
      <point x="568" y="647"/>
      <point x="551" y="637"/>
      <point x="551" y="620" type="curve" smooth="yes"/>
      <point x="551" y="588"/>
      <point x="599" y="508"/>
      <point x="712" y="508" type="curve" smooth="yes"/>
      <point x="782" y="508"/>
      <point x="812" y="521"/>
      <point x="833" y="531" type="curve" smooth="yes"/>
      <point x="848" y="538"/>
      <point x="856" y="540"/>
      <point x="864" y="540" type="curve" smooth="yes"/>
      <point x="890" y="540"/>
      <point x="900" y="487"/>
      <point x="909" y="440" type="curve" smooth="yes"/>
      <point x="934" y="311"/>
      <point x="962" y="150"/>
      <point x="962" y="118" type="curve" smooth="yes"/>
      <point x="962" y="76"/>
      <point x="905" y="70"/>
      <point x="777" y="70" type="curve" smooth="yes"/>
      <point x="725" y="70"/>
      <point x="673" y="73"/>
      <point x="650" y="78" type="curve"/>
      <point x="636" y="131"/>
      <point x="622" y="204"/>
      <point x="607" y="282" type="curve" smooth="yes"/>
      <point x="585" y="396"/>
      <point x="554" y="485"/>
      <point x="439" y="485" type="curve" smooth="yes"/>
      <point x="373" y="485"/>
      <point x="303" y="434"/>
      <point x="254" y="377" type="curve"/>
      <point x="234" y="450"/>
      <point x="217" y="528"/>
      <point x="214" y="608" type="curve" smooth="yes"/>
      <point x="213" y="631"/>
      <point x="202" y="640"/>
      <point x="175" y="640" type="curve" smooth="yes"/>
      <point x="138" y="640"/>
      <point x="125" y="627"/>
      <point x="125" y="602" type="curve" smooth="yes"/>
      <point x="125" y="548"/>
      <point x="148" y="446"/>
      <point x="173" y="347" type="curve" smooth="yes"/>
      <point x="196" y="255"/>
      <point x="216" y="166"/>
      <point x="216" y="121" type="curve" smooth="yes"/>
      <point x="216" y="77"/>
      <point x="183" y="64"/>
      <point x="157" y="64" type="curve" smooth="yes"/>
      <point x="128" y="64"/>
      <point x="105" y="77"/>
      <point x="92" y="87" type="curve" smooth="yes"/>
      <point x="83" y="94"/>
      <point x="76" y="98"/>
      <point x="67" y="98" type="curve" smooth="yes"/>
      <point x="49" y="98"/>
      <point x="30" y="77"/>
      <point x="30" y="55" type="curve" smooth="yes"/>
      <point x="30" y="22"/>
      <point x="78" y="-12"/>
    </contour>
  </outline>
</glyph>
<glyph name="u1086C10863" format="2">
  <advance width="1208"/>
  <outline>
    <contour>
      <point x="522" y="-13" type="curve" smooth="yes"/>
      <point x="546" y="-13"/>
      <point x="568" y="-2"/>
      <point x="595" y="13" type="curve" smooth="yes"/>
      <point x="728" y="86"/>
      <point x="784" y="240"/>
      <point x="784" y="387" type="curve" smooth="yes"/>
      <point x="784" y="425"/>
      <point x="782" y="451"/>
      <point x="777" y="476" type="curve"/>
      <point x="848" y="448"/>
      <point x="932" y="436"/>
      <point x="984" y="436" type="curve"/>
      <point x="984" y="429" type="line" smooth="yes"/>
      <point x="984" y="373"/>
      <point x="1011" y="318"/>
      <point x="1038" y="267" type="curve" smooth="yes"/>
      <point x="1060" y="225"/>
      <point x="1080" y="186"/>
      <point x="1080" y="143" type="curve" smooth="yes"/>
      <point x="1080" y="87"/>
      <point x="1042" y="66"/>
      <point x="999" y="66" type="curve" smooth="yes"/>
      <point x="962" y="66"/>
      <point x="928" y="82"/>
      <point x="904" y="120" type="curve" smooth="yes"/>
      <point x="897" y="131"/>
      <point x="892" y="136"/>
      <point x="878" y="136" type="curve" smooth="yes"/>
      <point x="861" y="136"/>
      <point x="826" y="121"/>
      <point x="826" y="96" type="curve" smooth="yes"/>
      <point x="826" y="54"/>
      <point x="884" y="-10"/>
      <point x="996" y="-10" type="curve" smooth="yes"/>
      <point x="1066" y="-10"/>
      <point x="1168" y="14"/>
      <point x="1168" y="150" type="curve" smooth="yes"/>
      <point x="1168" y="214"/>
      <point x="1143" y="265"/>
      <point x="1110" y="326" type="curve" smooth="yes"/>
      <point x="1088" y="367"/>
      <point x="1068" y="405"/>
      <point x="1068" y="446" type="curve" smooth="yes"/>
      <point x="1068" y="451"/>
      <point x="1068" y="459"/>
      <point x="1069" y="468" type="curve" smooth="yes"/>
      <point x="1070" y="479"/>
      <point x="1070" y="483"/>
      <point x="1070" y="489" type="curve" smooth="yes"/>
      <point x="1070" y="509"/>
      <point x="1050" y="520"/>
      <point x="1031" y="520" type="curve" smooth="yes"/>
      <point x="1023" y="520"/>
      <point x="1014" y="519"/>
      <point x="1001" y="516" type="curve" smooth="yes"/>
      <point x="993" y="514"/>
      <point x="985" y="513"/>
      <point x="977" y="513" type="curve" smooth="yes"/>
      <point x="949" y="513"/>
      <point x="788" y="532"/>
      <point x="747" y="579" type="curve"/>
      <point x="726" y="613"/>
      <point x="704" y="642"/>
      <point x="683" y="642" type="curve" smooth="yes"/>
      <point x="662" y="642"/>
      <point x="641" y="623"/>
      <point x="641" y="604" type="curve" smooth="yes"/>
      <point x="641" y="593"/>
      <point x="645" y="586"/>
      <point x="652" y="578" type="curve" smooth="yes"/>
      <point x="691" y="534"/>
      <point x="703" y="469"/>
      <point x="703" y="403" type="curve" smooth="yes"/>
      <point x="703" y="290"/>
      <point x="675" y="152"/>
      <point x="550" y="85" type="curve"/>
      <point x="525" y="156"/>
      <point x="511" y="202"/>
      <point x="493" y="264" type="curve" smooth="yes"/>
      <point x="456" y="392"/>
      <point x="444" y="494"/>
      <point x="444" y="617" type="curve" smooth="yes"/>
      <point x="444" y="635"/>
      <point x="433" y="640"/>
      <point x="402" y="640" type="curve" smooth="yes"/>
      <point x="377" y="640"/>
      <point x="363" y="632"/>
      <point x="360" y="612" type="curve" smooth="yes"/>
      <point x="358" y="597"/>
      <point x="358" y="568"/>
      <point x="358" y="544" type="curve" smooth="yes"/>
      <point x="358" y="486"/>
      <point x="294" y="452"/>
      <point x="243" y="452" type="curve" smooth="yes"/>
      <point x="155" y="452"/>
      <point x="108" y="506"/>
      <point x="108" y="580" type="curve" smooth="yes"/>
      <point x="108" y="589"/>
      <point x="108" y="595"/>
      <point x="109" y="604" type="curve" smooth="yes"/>
      <point x="110" y="612"/>
      <point x="110" y="614"/>
      <point x="110" y="619" type="curve" smooth="yes"/>
      <point x="110" y="633"/>
      <point x="99" y="640"/>
      <point x="66" y="640" type="curve" smooth="yes"/>
      <point x="26" y="640"/>
      <point x="20" y="616"/>
      <point x="20" y="581" type="curve" smooth="yes"/>
      <point x="20" y="521"/>
      <point x="53" y="376"/>
      <point x="241" y="376" type="curve" smooth="yes"/>
      <point x="292" y="376"/>
      <point x="339" y="389"/>
      <point x="373" y="419" type="curve"/>
      <point x="402" y="239"/>
      <point x="471" y="52"/>
      <point x="485" y="15" type="curve" smooth="yes"/>
      <point x="492" y="-4"/>
      <point x="502" y="-13"/>
    </contour>
  </outline>
</glyph>
<glyph name="u1086C10867" format="2">
  <advance width="1268"/>
  <outline>
    <contour>
      <point x="134" y="-13" type="curve" smooth="yes"/>
      <point x="232" y="-13"/>
      <point x="267" y="44"/>
      <point x="267" y="104" type="curve" smooth="yes"/>
      <point x="267" y="151"/>
      <point x="250" y="222"/>
      <point x="227" y="291" type="curve"/>
      <point x="257" y="314"/>
      <point x="291" y="336"/>
      <point x="322" y="336" type="curve" smooth="yes"/>
      <point x="357" y="336"/>
      <point x="424" y="291"/>
      <point x="480" y="250" type="curve"/>
      <point x="504" y="172"/>
      <point x="539" y="75"/>
      <point x="566" y="13" type="curve" smooth="yes"/>
      <point x="574" y="-5"/>
      <point x="585" y="-13"/>
      <point x="605" y="-13" type="curve" smooth="yes"/>
      <point x="624" y="-13"/>
      <point x="644" y="-4"/>
      <point x="667" y="10" type="curve" smooth="yes"/>
      <point x="790" y="85"/>
      <point x="844" y="239"/>
      <point x="844" y="387" type="curve" smooth="yes"/>
      <point x="844" y="425"/>
      <point x="842" y="451"/>
      <point x="837" y="476" type="curve"/>
      <point x="908" y="448"/>
      <point x="992" y="436"/>
      <point x="1044" y="436" type="curve"/>
      <point x="1044" y="429" type="line" smooth="yes"/>
      <point x="1044" y="373"/>
      <point x="1071" y="318"/>
      <point x="1098" y="267" type="curve" smooth="yes"/>
      <point x="1120" y="225"/>
      <point x="1140" y="186"/>
      <point x="1140" y="143" type="curve" smooth="yes"/>
      <point x="1140" y="87"/>
      <point x="1102" y="66"/>
      <point x="1059" y="66" type="curve" smooth="yes"/>
      <point x="1022" y="66"/>
      <point x="988" y="82"/>
      <point x="964" y="120" type="curve" smooth="yes"/>
      <point x="957" y="131"/>
      <point x="952" y="136"/>
      <point x="938" y="136" type="curve" smooth="yes"/>
      <point x="921" y="136"/>
      <point x="886" y="121"/>
      <point x="886" y="96" type="curve" smooth="yes"/>
      <point x="886" y="54"/>
      <point x="944" y="-10"/>
      <point x="1056" y="-10" type="curve" smooth="yes"/>
      <point x="1126" y="-10"/>
      <point x="1228" y="14"/>
      <point x="1228" y="150" type="curve" smooth="yes"/>
      <point x="1228" y="214"/>
      <point x="1203" y="265"/>
      <point x="1170" y="326" type="curve" smooth="yes"/>
      <point x="1148" y="367"/>
      <point x="1128" y="405"/>
      <point x="1128" y="446" type="curve" smooth="yes"/>
      <point x="1128" y="451"/>
      <point x="1128" y="459"/>
      <point x="1129" y="468" type="curve" smooth="yes"/>
      <point x="1130" y="479"/>
      <point x="1130" y="483"/>
      <point x="1130" y="489" type="curve" smooth="yes"/>
      <point x="1130" y="509"/>
      <point x="1110" y="520"/>
      <point x="1091" y="520" type="curve" smooth="yes"/>
      <point x="1083" y="520"/>
      <point x="1074" y="519"/>
      <point x="1061" y="516" type="curve" smooth="yes"/>
      <point x="1053" y="514"/>
      <point x="1045" y="513"/>
      <point x="1037" y="513" type="curve" smooth="yes"/>
      <point x="1009" y="513"/>
      <point x="848" y="532"/>
      <point x="807" y="579" type="curve"/>
      <point x="786" y="613"/>
      <point x="764" y="642"/>
      <point x="743" y="642" type="curve" smooth="yes"/>
      <point x="722" y="642"/>
      <point x="701" y="623"/>
      <point x="701" y="604" type="curve" smooth="yes"/>
      <point x="701" y="593"/>
      <point x="705" y="586"/>
      <point x="712" y="578" type="curve" smooth="yes"/>
      <point x="751" y="534"/>
      <point x="763" y="469"/>
      <point x="763" y="403" type="curve" smooth="yes"/>
      <point x="763" y="291"/>
      <point x="738" y="154"/>
      <point x="629" y="88" type="curve"/>
      <point x="552" y="283"/>
      <point x="513" y="393"/>
      <point x="513" y="596" type="curve" smooth="yes"/>
      <point x="513" y="630"/>
      <point x="511" y="640"/>
      <point x="472" y="640" type="curve" smooth="yes"/>
      <point x="444" y="640"/>
      <point x="431" y="631"/>
      <point x="429" y="617" type="curve" smooth="yes"/>
      <point x="426" y="594"/>
      <point x="426" y="576"/>
      <point x="426" y="558" type="curve" smooth="yes"/>
      <point x="426" y="491"/>
      <point x="437" y="420"/>
      <point x="453" y="352" type="curve"/>
      <point x="401" y="385"/>
      <point x="363" y="408"/>
      <point x="326" y="408" type="curve" smooth="yes"/>
      <point x="282" y="408"/>
      <point x="241" y="383"/>
      <point x="206" y="358" type="curve"/>
      <point x="184" y="442"/>
      <point x="173" y="545"/>
      <point x="173" y="607" type="curve" smooth="yes"/>
      <point x="173" y="631"/>
      <point x="167" y="640"/>
      <point x="132" y="640" type="curve" smooth="yes"/>
      <point x="95" y="640"/>
      <point x="87" y="627"/>
      <point x="87" y="602" type="curve" smooth="yes"/>
      <point x="87" y="530"/>
      <point x="98" y="417"/>
      <point x="130" y="315" type="curve" smooth="yes"/>
      <point x="158" y="225"/>
      <point x="179" y="146"/>
      <point x="179" y="114" type="curve" smooth="yes"/>
      <point x="179" y="77"/>
      <point x="165" y="63"/>
      <point x="132" y="63" type="curve" smooth="yes"/>
      <point x="113" y="63"/>
      <point x="99" y="67"/>
      <point x="86" y="72" type="curve" smooth="yes"/>
      <point x="75" y="76"/>
      <point x="66" y="79"/>
      <point x="56" y="79" type="curve" smooth="yes"/>
      <point x="36" y="79"/>
      <point x="20" y="60"/>
      <point x="20" y="39" type="curve" smooth="yes"/>
      <point x="20" y="27"/>
      <point x="27" y="17"/>
      <point x="43" y="7" type="curve" smooth="yes"/>
      <point x="63" y="-5"/>
      <point x="96" y="-13"/>
    </contour>
  </outline>
</glyph>
<glyph name="u1086C10876" format="2">
  <advance width="1298"/>
  <outline>
    <contour>
      <point x="153" y="-12" type="curve" smooth="yes"/>
      <point x="269" y="-12"/>
      <point x="304" y="53"/>
      <point x="304" y="119" type="curve" smooth="yes"/>
      <point x="304" y="166"/>
      <point x="290" y="226"/>
      <point x="275" y="288" type="curve"/>
      <point x="310" y="339"/>
      <point x="379" y="409"/>
      <point x="433" y="409" type="curve" smooth="yes"/>
      <point x="500" y="409"/>
      <point x="515" y="319"/>
      <point x="543" y="157" type="curve" smooth="yes"/>
      <point x="568" y="14"/>
      <point x="575" y="-10"/>
      <point x="619" y="-10" type="curve" smooth="yes"/>
      <point x="641" y="-10"/>
      <point x="662" y="1"/>
      <point x="685" y="13" type="curve" smooth="yes"/>
      <point x="819" y="82"/>
      <point x="874" y="240"/>
      <point x="874" y="387" type="curve" smooth="yes"/>
      <point x="874" y="425"/>
      <point x="872" y="451"/>
      <point x="867" y="476" type="curve"/>
      <point x="938" y="448"/>
      <point x="1022" y="436"/>
      <point x="1074" y="436" type="curve"/>
      <point x="1074" y="429" type="line" smooth="yes"/>
      <point x="1074" y="373"/>
      <point x="1101" y="318"/>
      <point x="1128" y="267" type="curve" smooth="yes"/>
      <point x="1150" y="225"/>
      <point x="1170" y="186"/>
      <point x="1170" y="143" type="curve" smooth="yes"/>
      <point x="1170" y="87"/>
      <point x="1132" y="66"/>
      <point x="1089" y="66" type="curve" smooth="yes"/>
      <point x="1052" y="66"/>
      <point x="1018" y="82"/>
      <point x="994" y="120" type="curve" smooth="yes"/>
      <point x="987" y="131"/>
      <point x="982" y="136"/>
      <point x="968" y="136" type="curve" smooth="yes"/>
      <point x="951" y="136"/>
      <point x="916" y="121"/>
      <point x="916" y="96" type="curve" smooth="yes"/>
      <point x="916" y="54"/>
      <point x="974" y="-10"/>
      <point x="1086" y="-10" type="curve" smooth="yes"/>
      <point x="1156" y="-10"/>
      <point x="1258" y="14"/>
      <point x="1258" y="150" type="curve" smooth="yes"/>
      <point x="1258" y="214"/>
      <point x="1233" y="265"/>
      <point x="1200" y="326" type="curve" smooth="yes"/>
      <point x="1178" y="367"/>
      <point x="1158" y="405"/>
      <point x="1158" y="446" type="curve" smooth="yes"/>
      <point x="1158" y="451"/>
      <point x="1158" y="459"/>
      <point x="1159" y="468" type="curve" smooth="yes"/>
      <point x="1160" y="479"/>
      <point x="1160" y="483"/>
      <point x="1160" y="489" type="curve" smooth="yes"/>
      <point x="1160" y="509"/>
      <point x="1140" y="520"/>
      <point x="1121" y="520" type="curve" smooth="yes"/>
      <point x="1113" y="520"/>
      <point x="1104" y="519"/>
      <point x="1091" y="516" type="curve" smooth="yes"/>
      <point x="1083" y="514"/>
      <point x="1075" y="513"/>
      <point x="1067" y="513" type="curve" smooth="yes"/>
      <point x="1039" y="513"/>
      <point x="878" y="532"/>
      <point x="837" y="579" type="curve"/>
      <point x="816" y="613"/>
      <point x="794" y="642"/>
      <point x="773" y="642" type="curve" smooth="yes"/>
      <point x="752" y="642"/>
      <point x="731" y="623"/>
      <point x="731" y="604" type="curve" smooth="yes"/>
      <point x="731" y="593"/>
      <point x="735" y="586"/>
      <point x="742" y="578" type="curve" smooth="yes"/>
      <point x="781" y="534"/>
      <point x="793" y="469"/>
      <point x="793" y="403" type="curve" smooth="yes"/>
      <point x="793" y="290"/>
      <point x="765" y="152"/>
      <point x="643" y="86" type="curve"/>
      <point x="633" y="147"/>
      <point x="621" y="213"/>
      <point x="608" y="277" type="curve" smooth="yes"/>
      <point x="587" y="381"/>
      <point x="560" y="485"/>
      <point x="439" y="485" type="curve" smooth="yes"/>
      <point x="373" y="485"/>
      <point x="303" y="434"/>
      <point x="254" y="377" type="curve"/>
      <point x="234" y="450"/>
      <point x="217" y="528"/>
      <point x="214" y="608" type="curve" smooth="yes"/>
      <point x="213" y="631"/>
      <point x="202" y="640"/>
      <point x="175" y="640" type="curve" smooth="yes"/>
      <point x="138" y="640"/>
      <point x="125" y="627"/>
      <point x="125" y="602" type="curve" smooth="yes"/>
      <point x="125" y="548"/>
      <point x="148" y="446"/>
      <point x="173" y="347" type="curve" smooth="yes"/>
      <point x="196" y="255"/>
      <point x="216" y="166"/>
      <point x="216" y="121" type="curve" smooth="yes"/>
      <point x="216" y="77"/>
      <point x="183" y="64"/>
      <point x="157" y="64" type="curve" smooth="yes"/>
      <point x="128" y="64"/>
      <point x="105" y="77"/>
      <point x="92" y="87" type="curve" smooth="yes"/>
      <point x="83" y="94"/>
      <point x="76" y="98"/>
      <point x="67" y="98" type="curve" smooth="yes"/>
      <point x="49" y="98"/>
      <point x="30" y="77"/>
      <point x="30" y="55" type="curve" smooth="yes"/>
      <point x="30" y="22"/>
      <point x="78" y="-12"/>
    </contour>
  </outline>
</glyph>
<glyph name="u1086E10860" format="2">
  <advance width="957"/>
  <outline>
    <contour>
      <point x="732" y="-35" type="curve" smooth="yes"/>
      <point x="824" y="-35"/>
      <point x="896" y="23"/>
      <point x="896" y="149" type="curve" smooth="yes"/>
      <point x="896" y="231"/>
      <point x="878" y="286"/>
      <point x="854" y="353" type="curve" smooth="yes"/>
      <point x="829" y="424"/>
      <point x="803" y="500"/>
      <point x="803" y="609" type="curve" smooth="yes"/>
      <point x="803" y="633"/>
      <point x="786" y="640"/>
      <point x="764" y="640" type="curve" smooth="yes"/>
      <point x="725" y="640"/>
      <point x="715" y="624"/>
      <point x="715" y="591" type="curve" smooth="yes"/>
      <point x="715" y="491"/>
      <point x="742" y="414"/>
      <point x="767" y="343" type="curve" smooth="yes"/>
      <point x="789" y="280"/>
      <point x="809" y="221"/>
      <point x="809" y="149" type="curve" smooth="yes"/>
      <point x="809" y="77"/>
      <point x="782" y="41"/>
      <point x="732" y="41" type="curve" smooth="yes"/>
      <point x="692" y="41"/>
      <point x="659" y="59"/>
      <point x="618" y="89" type="curve" smooth="yes"/>
      <point x="556" y="134"/>
      <point x="485" y="205"/>
      <point x="419" y="283" type="curve"/>
      <point x="483" y="353"/>
      <point x="562" y="511"/>
      <point x="562" y="605" type="curve" smooth="yes"/>
      <point x="562" y="634"/>
      <point x="543" y="640"/>
      <point x="511" y="640" type="curve" smooth="yes"/>
      <point x="489" y="640"/>
      <point x="476" y="633"/>
      <point x="473" y="605" type="curve" smooth="yes"/>
      <point x="462" y="510"/>
      <point x="420" y="411"/>
      <point x="362" y="348" type="curve"/>
      <point x="295" y="429"/>
      <point x="234" y="515"/>
      <point x="175" y="607" type="curve" smooth="yes"/>
      <point x="161" y="629"/>
      <point x="151" y="640"/>
      <point x="127" y="640" type="curve" smooth="yes"/>
      <point x="103" y="640"/>
      <point x="78" y="631"/>
      <point x="78" y="605" type="curve" smooth="yes"/>
      <point x="78" y="592"/>
      <point x="89" y="570"/>
      <point x="105" y="547" type="curve" smooth="yes"/>
      <point x="128" y="513"/>
      <point x="147" y="486"/>
      <point x="166" y="459" type="curve"/>
      <point x="70" y="343"/>
      <point x="40" y="262"/>
      <point x="40" y="197" type="curve" smooth="yes"/>
      <point x="40" y="89"/>
      <point x="105" y="37"/>
      <point x="188" y="37" type="curve" smooth="yes"/>
      <point x="241" y="37"/>
      <point x="300" y="55"/>
      <point x="332" y="118" type="curve" smooth="yes"/>
      <point x="336" y="126"/>
      <point x="337" y="129"/>
      <point x="337" y="137" type="curve" smooth="yes"/>
      <point x="337" y="155"/>
      <point x="311" y="178"/>
      <point x="289" y="178" type="curve" smooth="yes"/>
      <point x="275" y="178"/>
      <point x="269" y="170"/>
      <point x="258" y="154" type="curve" smooth="yes"/>
      <point x="245" y="135"/>
      <point x="229" y="113"/>
      <point x="194" y="113" type="curve" smooth="yes"/>
      <point x="146" y="113"/>
      <point x="128" y="154"/>
      <point x="128" y="210" type="curve" smooth="yes"/>
      <point x="128" y="245"/>
      <point x="143" y="306"/>
      <point x="213" y="394" type="curve"/>
      <point x="249" y="346"/>
      <point x="286" y="300"/>
      <point x="336" y="246" type="curve" smooth="yes"/>
      <point x="429" y="144"/>
      <point x="503" y="63"/>
      <point x="578" y="14" type="curve" smooth="yes"/>
      <point x="627" y="-18"/>
      <point x="677" y="-35"/>
    </contour>
  </outline>
</glyph>
<glyph name="u1087310874" format="2">
  <advance width="1297"/>
  <outline>
    <contour>
      <point x="234" y="610" type="curve" smooth="yes"/>
      <point x="268" y="610"/>
      <point x="296" y="637"/>
      <point x="296" y="670" type="curve" smooth="yes"/>
      <point x="296" y="697"/>
      <point x="279" y="721"/>
      <point x="246" y="721" type="curve" smooth="yes"/>
      <point x="208" y="721"/>
      <point x="185" y="697"/>
      <point x="185" y="661" type="curve" smooth="yes"/>
      <point x="185" y="631"/>
      <point x="203" y="610"/>
    </contour>
    <component base="u1087310863"/>
  </outline>
</glyph>
